{"title":"How.To.Rob.A.Bank.2007.DVDRiP.XViD.OPTIONAL.NORDIC-Zen_Bud","uid":5847015,"size":756950662,"categoryP":"video","categoryS":"movies","magnet":"?xt=urn:btih:352bf8884c2d8c93cb3fa52ee654d55bb7a24e7a&amp;dn=How.To.Rob.A.Bank.2007.DVDRiP.XViD.OPTIONAL.NORDIC-Zen_Bud&amp;tr=udp%3A%2F%2Ftracker.openbittorrent.com%3A80&amp;tr=udp%3A%2F%2Fopen.demonii.com%3A1337&amp;tr=udp%3A%2F%2Ftracker.coppersurfer.tk%3A6969&amp;tr=udp%3A%2F%2Fexodus.desync.com%3A6969","seeders":0,"leechers":0,"uploader":"Zen_Bud","files":-1,"time":1285230395,"description":"\nComplete name                    : How.To.Rob.A.Bank.2007.avi\nFormat                           : AVI\nFile size                        : 705 MiB\nDuration                         : 1h 17mn\nOverall bit rate                 : 1 266 Kbps\n\nVideo\n\nFormat                           : MPEG-4 Visual\nCodec ID/Hint                    : XviD\nDuration                         : 1h 17mn\nBit rate                         : 1 125 Kbps\nWidth                            : 720 pixels\nHeight                           : 576 pixels\nDisplay aspect ratio             : 16:9\nStream size                      : 626 MiB (89%)\nWriting library                  : XviD 1.1.2 (UTC 2006-11-01)\n\nAudio\n\nFormat                           : MPEG Audio\nCodec ID/Hint                    : MP3\nDuration                         : 1h 17mn\nBit rate                         : 128 Kbps\nChannel(s)                       : 2 channels\nSampling rate                    : 48.0 KHz\nStream size                      : 71.3 MiB (10%)\n\n\n","torrent":{"xt":"urn:btih:352bf8884c2d8c93cb3fa52ee654d55bb7a24e7a","amp;dn":"How.To.Rob.A.Bank.2007.DVDRiP.XViD.OPTIONAL.NORDIC-Zen_Bud","amp;tr":["udp%3A%2F%2Ftracker.openbittorrent.com%3A80","udp%3A%2F%2Fopen.demonii.com%3A1337","udp%3A%2F%2Ftracker.coppersurfer.tk%3A6969","udp%3A%2F%2Fexodus.desync.com%3A6969"],"infoHash":"352bf8884c2d8c93cb3fa52ee654d55bb7a24e7a","infoHashBuffer":{"type":"Buffer","data":[53,43,248,136,76,45,140,147,203,63,165,46,230,84,213,91,183,162,78,122]},"announce":[],"urlList":[]}}